<svg xmlns="http://www.w3.org/2000/svg" width="50.169" height="44.516" viewBox="0 0 50.169 44.516">
  <path id="Path_5" data-name="Path 5" d="M51-68v-1.335A23.46,23.46,0,0,1,41.823-79.2a25.96,25.96,0,0,1-2.759-11.01q0-5.624,2.007-5.624h5.117a8.137,8.137,0,0,0,5.117-2.955,8.871,8.871,0,0,0,1.906-5.719,6.986,6.986,0,0,0-2.709-6.005,10.348,10.348,0,0,0-6.321-2,11.162,11.162,0,0,0-6.622,2.145,14.58,14.58,0,0,0-4.766,6.005,20.84,20.84,0,0,0-1.756,8.722,28.4,28.4,0,0,0,5.418,16.538A29.72,29.72,0,0,0,51-68ZM23.01-68v-1.335a23.571,23.571,0,0,1-8.98-10.009A26.4,26.4,0,0,1,11.271-90.21q0-5.624,2.107-5.624,1.505,0,3.11.048a10.719,10.719,0,0,0,2.007-.048,8.285,8.285,0,0,0,5.067-2.955,8.725,8.725,0,0,0,1.957-5.719,6.916,6.916,0,0,0-2.809-5.958,10.464,10.464,0,0,0-6.321-2.049,11.737,11.737,0,0,0-9.532,4.766q-3.813,4.766-3.813,12.106A28.4,28.4,0,0,0,8.461-79.105,29.72,29.72,0,0,0,23.01-68Z" transform="translate(-3.043 112.516)" fill="#b2b2b2" opacity="0.5"/>
</svg>
