<svg xmlns="http://www.w3.org/2000/svg" width="107.333" height="106.85" viewBox="0 0 107.333 106.85">
  <path id="iCON" d="M4736.635,2806.31a24.64,24.64,0,0,1-3.32.253,24.371,24.371,0,0,1-17.2-41.577l43.86-43.86a24.368,24.368,0,0,1,34.461,34.461l-13.712,13.469c20.057,1.078,34.613,8.261,34.613,17.564v15.507c0,11.094-20.273,17.723-39.875,17.723C4758.466,2819.85,4740.993,2814.862,4736.635,2806.31Zm3.379-4.183c0,6.276,15.159,13.292,35.444,13.292s35.445-7.016,35.445-13.292v-7.146c-6.5,5.657-19.608,9.361-35.445,9.361s-28.94-3.7-35.444-9.361Zm-20.771-34.009a19.891,19.891,0,0,0,16.34,33.855V2786.62c0-7.938,10.614-14.328,26.183-16.707l-22.16-22.156Zm43.943,30.917a84.729,84.729,0,0,0,12.272.877c20.887,0,35.445-7,35.445-13.292,0-4.242-6.644-8.8-17.372-11.326Zm-23.171-12.415c0,4.243,6.643,8.8,17.372,11.327l30.344-23.741a84.584,84.584,0,0,0-12.272-.877C4754.57,2773.329,4740.014,2780.333,4740.014,2786.62Zm23.089-62.362-20.364,20.365,24.613,24.613c2.313-.2,4.718-.3,7.185-.319l16.776-16.477a19.938,19.938,0,0,0-28.21-28.183Zm-40.729,46.994,1.568-1.569,3.133,3.135-1.569,1.566a10.9,10.9,0,0,0,.094,15.571l-3.132,3.132A15.276,15.276,0,0,1,4722.375,2771.253Z" transform="translate(-4708.5 -2713.5)" stroke="rgba(0,0,0,0)" stroke-width="1"/>
</svg>
