<svg xmlns="http://www.w3.org/2000/svg" width="134.001" height="112.416" viewBox="0 0 134.001 112.416">
  <g id="Group_396" data-name="Group 396" transform="translate(-166.58 -304.121)">
    <path id="Path_58" data-name="Path 58" d="M223,325.783s-4.23,8.483-4.313,9.028c-.085.56,4.68,1.716,5.261,1.209.709-.619,2.031-5.968,3.178-8.468,0,0-2.013,8.367-2.009,8.706.007.67,3.379,1.481,3.858,1.366.5-.119,1.266-3.958,2.094-9.081l-.194-7.629c-.6-.018-1.861-.078-2.036-.1-1.456-.18-2.277-.166-3.156-1.422a9.19,9.19,0,0,1-1.274-4.4c-.008-.1-.016-.222-.026-.374-.161-2.431-.537-8.125-6.572-8.65-.466-.04-.932-.061-1.382-.061a16.021,16.021,0,0,0-3.318.344,21.1,21.1,0,0,0-4.944,1.806c-1.7.842-3.371,1.741-5.092,2.552-.76.358-1.516.734-2.29,1.063-1.337.569-2.441,1.018-2.44,1s1.121-.5,2.455-1.115c.791-.362,1.566-.762,2.346-1.148q.754-.373,1.508-.749l.559-.28c3.151-1.594,6.069-3.488,9.68-3.867a14.723,14.723,0,0,1,1.537-.08c.465,0,.944.021,1.423.063,6.438.56,6.848,6.755,7,9.088.009.136.017.26.026.369a7.868,7.868,0,0,0,1.556,4.538,1.9,1.9,0,0,0,1.2.667c.225.051.452.09.681.121a19.963,19.963,0,0,0,2.247.154l.306,0-.034-1.32c-1.478-.037-3.083-.173-3.52-.57a6.973,6.973,0,0,1-1.648-4.474c-.157-2.041-.235-9.261-7.456-9.889s-11.38,3.453-17.738,6.671-34.4,13.689-33.882,14.123c1.347,1.133,4.393.911,7.179.536,1.292-.174,32.721-13.311,36.653-14.881,0,0-34.724,14.934-34.938,16.006-.3,1.5,6.322,2.518,8.144,1.982,3.093-.91,25.57-11.015,30.485-12.323,0,0-26.632,11.644-26.681,12.925-.04,1.045,9.62,2.525,11.382,2.032,2.948-.824,17.817-10.939,17.817-10.939-3.794,3.412-15.273,10.685-15.376,11.037-.187.635,6.8,2.124,8,1.454,1.727-.96,7.786-7.547,9.622-8.9,0,0-7.639,7.954-8.224,8.894-.767,1.232,5.968,2.358,7.106,1.757S221.991,326.736,223,325.783Z" transform="translate(0)" fill="#252425"/>
    <path id="Path_59" data-name="Path 59" d="M1062.112,310.857c-6.357-3.218-10.517-7.3-17.738-6.671s-7.3,7.849-7.456,9.889a6.975,6.975,0,0,1-1.648,4.474c-.437.4-2.043.533-3.52.57l-.034,1.32.306,0a19.973,19.973,0,0,0,2.248-.154c.228-.031.456-.07.68-.121a1.9,1.9,0,0,0,1.2-.667,7.869,7.869,0,0,0,1.556-4.538c.009-.109.016-.232.026-.369.154-2.332.563-8.528,7-9.088.479-.042.958-.063,1.423-.063a14.711,14.711,0,0,1,1.537.08c3.61.379,6.529,2.273,9.68,3.867l.559.28q.754.376,1.508.749c.78.386,1.555.786,2.346,1.148,1.334.611,2.454,1.11,2.455,1.115s-1.1-.435-2.44-1c-.774-.329-1.53-.705-2.29-1.063-1.721-.81-3.388-1.709-5.092-2.551a21.1,21.1,0,0,0-4.944-1.806,16.021,16.021,0,0,0-3.318-.344c-.451,0-.916.02-1.382.061-6.036.525-6.412,6.218-6.572,8.65-.01.151-.018.269-.026.374a9.188,9.188,0,0,1-1.274,4.4c-.88,1.256-1.7,1.242-3.156,1.422-.175.022-1.433.081-2.036.1l-.194,7.629c.828,5.123,1.6,8.962,2.094,9.081.479.115,3.851-.7,3.858-1.366,0-.339-2.009-8.706-2.009-8.706,1.147,2.5,2.469,7.85,3.178,8.468.581.507,5.346-.649,5.26-1.209-.083-.545-4.313-9.028-4.313-9.028,1.012.953,4.1,8.173,5.244,8.775s7.873-.525,7.106-1.757c-.585-.939-8.224-8.894-8.224-8.894,1.836,1.354,7.895,7.941,9.622,8.9,1.205.67,8.191-.818,8-1.454-.1-.352-11.583-7.625-15.376-11.037,0,0,14.869,10.115,17.817,10.939,1.762.492,11.423-.987,11.382-2.032-.049-1.281-26.681-12.925-26.681-12.925,4.915,1.308,27.392,11.413,30.485,12.323,1.822.536,8.443-.485,8.144-1.982-.214-1.072-34.938-16.006-34.938-16.006,3.932,1.57,35.361,14.707,36.653,14.881,2.786.375,5.833.6,7.179-.536C1096.509,324.546,1068.469,314.075,1062.112,310.857Z" transform="translate(-795.42 0)" fill="#252425"/>
    <path id="Path_60" data-name="Path 60" d="M957.174,337.851a3.767,3.767,0,1,0-3.767-3.767A3.767,3.767,0,0,0,957.174,337.851Z" transform="translate(-723.594 -24.09)" fill="#252425"/>
    <path id="Path_61" data-name="Path 61" d="M980.2,994.728l.724.511-.141.1,1.49-1.053.508-.358.187-8.208c-.676-.28-1.487-.59-2.385-.923q-.279.109-.539.214Z" transform="translate(-748.095 -625.974)" fill="#252425"/>
    <path id="Path_62" data-name="Path 62" d="M979.967,982.288h0l.007,0Z" transform="translate(-748.019 -623.666)" fill="#252425"/>
    <path id="Path_63" data-name="Path 63" d="M986.192,1372.378h0l.032.03Z" transform="translate(-753.744 -982.407)" fill="#252425"/>
    <path id="Path_64" data-name="Path 64" d="M986.539,1388.883c.12.155.239.309.357.465.314-.43.64-.848.964-1.257l.2-8.853c-.38-.387-.794-.794-1.224-1.2q-.236.23-.465.459Z" transform="translate(-753.911 -987.608)" fill="#252425"/>
    <path id="Path_65" data-name="Path 65" d="M1006.158,1327.419h0l-.233-.229Z" transform="translate(-771.891 -940.85)" fill="#252425"/>
    <path id="Path_66" data-name="Path 66" d="M985.572,1172.587c-.2-.143-.4-.288-.613-.436-.635.429-1.21.831-1.722,1.212l.153,9.575c.475.488.968.98,1.46,1.465l.464-.463Z" transform="translate(-751.026 -798.271)" fill="#252425"/>
    <path id="Path_67" data-name="Path 67" d="M960.408,451.318l.9-39.46h.648a.746.746,0,0,0,.627-.824.889.889,0,0,0-.317-.713,4.234,4.234,0,0,1-2.747,1.537h.025a4.183,4.183,0,0,1-1.143,0h.026a4.234,4.234,0,0,1-2.747-1.537.889.889,0,0,0-.317.713.746.746,0,0,0,.627.824h.642l.619,38.822c.5.233,1.012.473,1.545.72.477.222.969.45,1.468.684l-.749-.35Z" transform="translate(-725.391 -97.666)" fill="#252425"/>
    <path id="Path_68" data-name="Path 68" d="M990.574,1556.822l-.07.089a10.2,10.2,0,0,0-1.027,1.648l.14,8.789.368,1.217.391-1.217.236-10.363-.079-.111Z" transform="translate(-756.765 -1152.028)" fill="#252425"/>
    <path id="Path_69" data-name="Path 69" d="M925.113,1370.977l.029-.042q.093-.134.189-.265l.126-.173h0c-.117-.156-.237-.311-.357-.465q-.335-.434-.678-.861c-.393-.49-.791-.977-1.163-1.483-2.017-2.747-1.148-3.885-.73-5.141a12.006,12.006,0,0,1,2.405-2.9q.228-.228.465-.459h0l-.016-.015q-.2-.2-.413-.391l-.018-.017-.032-.03c-.433-.406-.873-.81-1.3-1.193-.569.57-1.115,1.132-1.611,1.675-3.408,3.728-2.469,5.573-1.774,7.378.545,1.413,2.643,3.235,4.4,5.109C924.789,1371.459,924.945,1371.22,925.113,1370.977Z" transform="translate(-692.471 -968.756)" fill="#252425"/>
    <path id="Path_70" data-name="Path 70" d="M865.66,977.723c.647-.48,1.37-1,2.122-1.536l.471-.335.092-.066.14-.1-.724-.511c-1.67-1.178-3.349-2.364-4.7-3.377-2.712-2.04.8-4.473,2.747-5.533a18.463,18.463,0,0,1,1.793-.807q.26-.1.539-.214h0l-.046-.017-.372-.137-.121-.044-.007,0c-.5-.185-1.029-.377-1.571-.574-.813-.3-1.673-.61-2.54-.933-.452.24-.9.482-1.327.728-2.523,1.446-5.344,3.87-4.062,7.09,1,2.5,3.583,3.891,5.753,5.239Q864.758,977.155,865.66,977.723Z" transform="translate(-635.651 -606.421)" fill="#252425"/>
    <path id="Path_71" data-name="Path 71" d="M1003.6,1547.224c-.084-.161-.174-.318-.265-.475-.24.271-.467.542-.675.809l-.041.052.079.111a6.536,6.536,0,0,1,1.161,2.435,6.452,6.452,0,0,1-.582,3.4,1.517,1.517,0,0,0,.273-.23,1.8,1.8,0,0,0,.249-.358,5.029,5.029,0,0,0,.53-3.922A8.884,8.884,0,0,0,1003.6,1547.224Z" transform="translate(-768.848 -1142.764)" fill="#252425"/>
    <path id="Path_72" data-name="Path 72" d="M1019.313,747.435c-.487-.315-.174-.745-.939-1.608a7.427,7.427,0,0,0-5.321-1.766,2.917,2.917,0,0,0-3.015,2.433c-.067.271-.15,1.02,1.1,1.962a17.852,17.852,0,0,0,4.173,1.844c.617.244.966.11,1.276.52a1.583,1.583,0,0,1,.282.6,1.427,1.427,0,0,1,.017.56,3.577,3.577,0,0,1-1.653,2c-.925.677-1.911,1.239-2.844,1.9a33.063,33.063,0,0,1-4.465,2.362l-.894.417.749.35c1.351.633,2.753,1.306,4.092,2.009,1.064-.4,2.125-.8,3.127-1.214,4.417-1.8,7.164-5.141,6.886-7.691A7.266,7.266,0,0,0,1019.313,747.435Z" transform="translate(-772.91 -404.583)" fill="#252425"/>
    <path id="Path_73" data-name="Path 73" d="M1006.288,1149.6l-.086-.064c-.313.2-.625.392-.93.591-.671.436-1.285.841-1.855,1.226h0q.317.221.613.436c2.534,1.835,3.921,3.333,4,5.228.062,1.536-1.921,3.778-4.256,6.125l-.464.463h0l.21.207.233.229.251.247c.372.365.746.734,1.117,1.1.409-.361.776-.677,1.065-.919,1.739-1.452,4.834-4.787,5.077-7.417S1008.9,1151.566,1006.288,1149.6Z" transform="translate(-769.484 -777.477)" fill="#252425"/>
    <path id="Path_74" data-name="Path 74" d="M825.907,762.426c-4.591-2.629-10.642-4.905-12.972-6.553-.934-.661-1.92-1.223-2.844-1.9a3.576,3.576,0,0,1-1.653-2,1.422,1.422,0,0,1,.017-.56,1.589,1.589,0,0,1,.282-.6,1.5,1.5,0,0,1,1.277-.52,11.34,11.34,0,0,0,4.173-1.844c1.252-.942,1.125-1.684,1.1-1.962a2.774,2.774,0,0,0-3.016-2.433,7.427,7.427,0,0,0-5.321,1.766c-.765.863-.452,1.294-.939,1.608a7.269,7.269,0,0,0-2.573,4.67c-.278,2.551,2.469,5.886,6.886,7.691s9.981,3.571,11.929,4.631,5.46,3.493,2.748,5.533-6.782,4.788-9.39,6.75-5.216,4.827-4.973,7.456,3.339,5.965,5.077,7.417,6.226,5.533,6.643,6.789,1.287,2.394-.73,5.141c-.139.189-.282.376-.427.561-.8,1.024-1.641,2.018-2.383,3.088a14.5,14.5,0,0,0-2.008,3.932,9.855,9.855,0,0,0-.429,2.306,9.435,9.435,0,0,0,.005,1.242,5.81,5.81,0,0,0,.644,2.315,4.528,4.528,0,0,0,.5.828c.059-.063-.53-1.8-.634-2.577a8.878,8.878,0,0,1,2-6.122c1.824-2.394,5.058-4.866,5.754-6.671s1.634-3.649-1.774-7.378-9.112-8.319-9.007-10.909,2.643-4.434,7.234-7.417c1.867-1.213,3.815-2.312,5.639-3.591,1.9-1.335,3.682-3.083,3.567-5.589C830.2,765.107,827.8,763.508,825.907,762.426Z" transform="translate(-585.662 -404.583)" fill="#252425"/>
  </g>
</svg>
