<svg width="81" height="1150" viewBox="0 0 81 1150" fill="none" xmlns="http://www.w3.org/2000/svg">
<circle cx="40" cy="40" r="40" fill="white"/>
<circle cx="40" cy="308" r="40" fill="white"/>
<circle cx="40" cy="575" r="40" fill="white"/>
<circle cx="40" cy="1110" r="40" fill="white"/>
<circle cx="40.0196" cy="842.001" r="40" fill="white"/>
<path fill-rule="evenodd" clip-rule="evenodd" d="M40 72C57.6731 72 72 57.6731 72 40C72 22.3269 57.6731 8 40 8C22.3269 8 8.00001 22.3269 8.00001 40C8.00001 57.6731 22.3269 72 40 72ZM45 79.6905C64.7316 77.23 80 60.3981 80 40C80 17.9086 62.0914 0 40 0C17.9086 0 1.03763e-05 17.9086 1.03763e-05 40C1.03763e-05 60.3981 15.2685 77.23 35 79.6905V268.309C15.2685 270.77 1.03763e-05 287.602 1.03763e-05 308C1.03763e-05 328.398 15.2685 345.23 35 347.691V535.309C15.2685 537.77 1.03763e-05 554.602 1.03763e-05 575C1.03763e-05 595.404 15.2772 612.24 35.017 614.693L35.0008 802.313C15.2796 804.782 0.0211521 821.608 0.0196534 841.999C0.0181542 862.397 15.2855 879.23 35.0169 881.692L35.0031 1070.31C15.2713 1072.77 0.00149935 1089.6 1.10409e-07 1110C-0.00162358 1132.09 17.9057 1150 39.9971 1150C62.0885 1150 79.9984 1132.1 80 1110C80.0015 1089.61 64.7344 1072.77 45.0031 1070.31L45.0169 881.692C64.7486 879.233 80.0182 862.402 80.0197 842.004C80.0212 821.599 64.7427 804.761 45.0008 802.309L45.017 614.688C64.7403 612.22 80 595.392 80 575C80 554.602 64.7316 537.77 45 535.309V347.691C64.7316 345.23 80 328.398 80 308C80 287.602 64.7316 270.77 45 268.309V79.6905ZM40 340C57.6731 340 72 325.673 72 308C72 290.327 57.6731 276 40 276C22.3269 276 8.00001 290.327 8.00001 308C8.00001 325.673 22.3269 340 40 340ZM40 607C57.6731 607 72 592.673 72 575C72 557.327 57.6731 543 40 543C22.3269 543 8.00001 557.327 8.00001 575C8.00001 592.673 22.3269 607 40 607ZM72 1110C71.9987 1127.68 57.6708 1142 39.9976 1142C22.3245 1142 7.9987 1127.67 8 1110C8.0013 1092.33 22.3292 1078 40.0024 1078C57.6755 1078 72.0013 1092.33 72 1110ZM40.0173 874.001C57.6904 874.003 72.0184 859.677 72.0197 842.004C72.021 824.331 57.6951 810.003 40.022 810.001C22.3489 810 8.02095 824.326 8.01965 841.999C8.01835 859.672 22.3442 874 40.0173 874.001Z" fill="url(#paint0_linear_306_101)"/>
<defs>
<linearGradient id="paint0_linear_306_101" x1="15.0079" y1="0" x2="15.0079" y2="697.268" gradientUnits="userSpaceOnUse">
<stop stop-color="#0077F0"/>
<stop offset="1" stop-color="#04315E"/>
</linearGradient>
</defs>
</svg>
