<svg width="41" height="1110" viewBox="0 0 41 1110" fill="none" xmlns="http://www.w3.org/2000/svg">
<circle cx="20" cy="20" r="20" fill="white"/>
<circle cx="20" cy="288" r="20" fill="white"/>
<circle cx="20" cy="555" r="20" fill="white"/>
<circle cx="20.0015" cy="1090" r="20" fill="white"/>
<circle cx="20.0211" cy="822" r="20" fill="white"/>
<path fill-rule="evenodd" clip-rule="evenodd" d="M20 35C28.2843 35 35 28.2843 35 20C35 11.7157 28.2843 5 20 5C11.7157 5 5 11.7157 5 20C5 28.2843 11.7157 35 20 35ZM40 20C40 29.3192 33.6261 37.1497 25 39.3699V268.63C33.6261 270.85 40 278.681 40 288C40 297.319 33.6261 305.15 25 307.37V535.63C33.6261 537.85 40 545.681 40 555C40 564.305 33.6455 572.126 25.0393 574.36L25.0225 802.63C33.6485 804.851 40.0218 812.682 40.0211 822.001C40.0204 831.321 33.646 839.151 25.0197 841.37L25.0029 1070.63C33.6288 1072.85 40.0021 1080.68 40.0015 1090C40.0006 1101.05 31.0457 1110 20 1110C8.95429 1110 0.000647865 1101.04 0.00145971 1090C0.00214466 1080.68 6.37657 1072.85 15.0029 1070.63L15.0197 841.37C6.39373 839.149 0.0204281 831.318 0.021113 821.999C0.021798 812.679 6.39623 804.849 15.0225 802.63L15.0393 574.38C6.39323 572.174 0 564.333 0 555C0 545.681 6.37386 537.85 15 535.63V307.37C6.37386 305.15 0 297.319 0 288C0 278.681 6.37386 270.85 15 268.63V39.3699C6.37386 37.1497 0 29.3192 0 20C0 8.9543 8.9543 0 20 0C31.0457 0 40 8.9543 40 20ZM35 288C35 296.284 28.2843 303 20 303C11.7157 303 5 296.284 5 288C5 279.716 11.7157 273 20 273C28.2843 273 35 279.716 35 288ZM35 555C35 563.284 28.2843 570 20 570C11.7157 570 5 563.284 5 555C5 546.716 11.7157 540 20 540C28.2843 540 35 546.716 35 555ZM20.0004 1105C28.2846 1105 35.0009 1098.29 35.0015 1090C35.0021 1081.72 28.2868 1075 20.0026 1075C11.7183 1075 5.00207 1081.71 5.00146 1090C5.00085 1098.28 11.7161 1105 20.0004 1105ZM20.02 837C28.3043 837.001 35.0205 830.285 35.0211 822.001C35.0217 813.717 28.3065 807.001 20.0222 807C11.7379 806.999 5.02172 813.715 5.02111 821.999C5.0205 830.283 11.7357 836.999 20.02 837Z" fill="url(#paint0_linear_306_101)"/>
<defs>
<linearGradient id="paint0_linear_306_101" x1="15.0079" y1="0" x2="15.0079" y2="697.268" gradientUnits="userSpaceOnUse">
<stop stop-color="#0077F0"/>
<stop offset="1" stop-color="#04315E"/>
</linearGradient>
</defs>
</svg>
