<svg width="40" height="174" viewBox="0 0 40 174" fill="none" xmlns="http://www.w3.org/2000/svg">
<path fill-rule="evenodd" clip-rule="evenodd" d="M20 35C28.2843 35 35 28.2843 35 20C35 11.7157 28.2843 5 20 5C11.7157 5 5 11.7157 5 20C5 28.2843 11.7157 35 20 35ZM40 20C40 29.3192 33.6261 37.1497 25 39.3699V67.6301C33.6261 69.8503 40 77.6808 40 87C40 96.3192 33.6261 104.15 25 106.37V134.63C33.6261 136.85 40 144.681 40 154C40 165.046 31.0457 174 20 174C8.9543 174 0 165.046 0 154C0 144.681 6.37386 136.85 15 134.63V106.37C6.37386 104.15 0 96.3192 0 87C0 77.6808 6.37386 69.8503 15 67.6301V39.3699C6.37386 37.1497 0 29.3192 0 20C0 8.9543 8.9543 0 20 0C31.0457 0 40 8.9543 40 20ZM20 102C28.2843 102 35 95.2843 35 87C35 78.7157 28.2843 72 20 72C11.7157 72 5 78.7157 5 87C5 95.2843 11.7157 102 20 102ZM35 154C35 162.284 28.2843 169 20 169C11.7157 169 5 162.284 5 154C5 145.716 11.7157 139 20 139C28.2843 139 35 145.716 35 154Z" fill="url(#paint0_linear_306_101)"/>
<defs>
<linearGradient id="paint0_linear_306_101" x1="15" y1="0" x2="15" y2="174" gradientUnits="userSpaceOnUse">
<stop stop-color="#0077F0"/>
<stop offset="1" stop-color="#04315E"/>
</linearGradient>
</defs>
</svg>
