<svg xmlns="http://www.w3.org/2000/svg" xmlns:xlink="http://www.w3.org/1999/xlink" width="34" height="35" viewBox="0 0 34 35">
  <defs>
    <clipPath id="clip-path">
      <rect width="34" height="35" fill="none"/>
    </clipPath>
    <linearGradient id="linear-gradient" x1="0.5" y1="1" x2="0.5" gradientUnits="objectBoundingBox">
      <stop offset="0" stop-color="#bfbfbf"/>
      <stop offset="1" stop-color="#383838"/>
    </linearGradient>
  </defs>
  <g id="Group_96" data-name="Group 96" transform="translate(-1196 -1902)">
    <g id="Repeat_Grid_2" data-name="Repeat Grid 2" transform="translate(1196 1902)" clip-path="url(#clip-path)">
      <g transform="translate(-1196 -1902)">
        <g id="Path_7" data-name="Path 7" transform="translate(1196 1902)" fill="url(#linear-gradient)">
          <path d="M 17 34.5 C 12.59543991088867 34.5 8.453729629516602 32.7335205078125 5.337820053100586 29.52597045898438 C 2.218110084533691 26.31450080871582 0.5 22.0435905456543 0.5 17.5 C 0.5 12.95641040802002 2.218110084533691 8.685500144958496 5.337820053100586 5.474030017852783 C 8.453729629516602 2.266479969024658 12.59543991088867 0.5 17 0.5 C 21.40456008911133 0.5 25.5462703704834 2.266479969024658 28.66217994689941 5.474030017852783 C 31.78189086914062 8.685500144958496 33.5 12.95641040802002 33.5 17.5 C 33.5 22.0435905456543 31.78189086914062 26.31450080871582 28.66217994689941 29.52597045898438 C 25.5462703704834 32.7335205078125 21.40456008911133 34.5 17 34.5 Z" stroke="none"/>
          <path d="M 17 1 C 12.73174095153809 1 8.717399597167969 2.712631225585938 5.696460723876953 5.822420120239258 C 2.667900085449219 8.94005012512207 1 13.08723068237305 1 17.5 C 1 21.91276931762695 2.667900085449219 26.05994987487793 5.696460723876953 29.17757987976074 C 8.717399597167969 32.28736877441406 12.73174095153809 34 17 34 C 21.26826095581055 34 25.28260040283203 32.28736877441406 28.30353927612305 29.17757987976074 C 31.33209991455078 26.05994987487793 33 21.91276931762695 33 17.5 C 33 13.08723068237305 31.33209991455078 8.94005012512207 28.30353927612305 5.822420120239258 C 25.28260040283203 2.712631225585938 21.26826095581055 1 17 1 M 17 0 C 26.38883972167969 0 34 7.835020065307617 34 17.5 C 34 27.16497993469238 26.38883972167969 35 17 35 C 7.611160278320312 35 0 27.16497993469238 0 17.5 C 0 7.835020065307617 7.611160278320312 0 17 0 Z" stroke="none" fill="#707070"/>
        </g>
      </g>
    </g>
    <circle id="Ellipse_2" data-name="Ellipse 2" cx="8.5" cy="8.5" r="8.5" transform="translate(1205 1911)" fill="#fff"/>
  </g>
</svg>
