<svg xmlns="http://www.w3.org/2000/svg" width="40" height="40" viewBox="0 0 40 40">
  <g id="address-icon" transform="translate(-1563 -739)">
    <circle id="Ellipse_4" data-name="Ellipse 4" cx="20" cy="20" r="20" transform="translate(1563 739)" fill="#0077f0"/>
    <path id="Path_8193" data-name="Path 8193" d="M16.124,4.667A8.361,8.361,0,0,0,9.89.123,2.81,2.81,0,0,1,9.234,0H7.72a4.913,4.913,0,0,1-.86.159,8.372,8.372,0,0,0-5.189,3.23A7.906,7.906,0,0,0,.181,9.964a15.8,15.8,0,0,0,1.655,4.275,44.749,44.749,0,0,0,5.982,8.378.8.8,0,0,0,1.365,0,49.756,49.756,0,0,0,4.7-6.18,25.942,25.942,0,0,0,2.3-4.395,10.612,10.612,0,0,0,.794-3.163,7.765,7.765,0,0,0-.855-4.211M8.467,12.519a4.236,4.236,0,0,1-4.24-4.257,4.276,4.276,0,0,1,8.549.131,4.253,4.253,0,0,1-4.308,4.126" transform="translate(1574.5 747.5)" fill="#fff"/>
  </g>
</svg>
