<svg xmlns="http://www.w3.org/2000/svg" width="40" height="40" viewBox="0 0 40 40">
  <g id="call-icon" transform="translate(-1380 -581)">
    <circle id="Ellipse_5" data-name="Ellipse 5" cx="20" cy="20" r="20" transform="translate(1380 581)" fill="#0077f0"/>
    <path id="Path_8187" data-name="Path 8187" d="M15.334,20a7.008,7.008,0,0,1-2.438-.435,17.8,17.8,0,0,1-5.25-2.636A20.072,20.072,0,0,1,1.371,9.481,15.442,15.442,0,0,1,.065,5.648,5.107,5.107,0,0,1,.4,2.9,6.062,6.062,0,0,1,1.474,1,3.63,3.63,0,0,1,3.7.032,1.115,1.115,0,0,1,5.026.7c.438.792.9,1.573,1.324,2.373.221.414.485.8.72,1.2a.823.823,0,0,1-.083,1.119A7.274,7.274,0,0,1,5.835,6.427a5.84,5.84,0,0,0-.956.9.607.607,0,0,0-.131.623,2.793,2.793,0,0,0,.17.434,16.194,16.194,0,0,0,3.366,4.428,18.286,18.286,0,0,0,3.357,2.28c.591.325.85.267,1.309-.234.415-.453.813-.923,1.219-1.385a4.325,4.325,0,0,1,.544-.532.722.722,0,0,1,.9-.076c1.285.832,2.674,1.484,3.972,2.3a.808.808,0,0,1,.406.853,7.511,7.511,0,0,1-.236,1.262A2.806,2.806,0,0,1,18.352,19a6.857,6.857,0,0,1-3.018,1" transform="translate(1390 591)" fill="#fefefe"/>
  </g>
</svg>
