<svg xmlns="http://www.w3.org/2000/svg" width="40" height="40" viewBox="0 0 40 40">
  <g id="mail-icon" transform="translate(-1575 -643)">
    <circle id="Ellipse_3" data-name="Ellipse 3" cx="20" cy="20" r="20" transform="translate(1575 643)" fill="#0077f0"/>
    <g id="Group_6206" data-name="Group 6206">
      <path id="Path_8188" data-name="Path 8188" d="M182.6,12.73c0-.028.015-.039.043-.038V24.865l-.088-.081a1.189,1.189,0,0,1-.026-.285q0-5.674,0-11.349a.7.7,0,0,1,.07-.42" transform="translate(1423.361 644.262)" fill="#fff"/>
      <path id="Path_8189" data-name="Path 8189" d="M15.392,0h9.291a1.971,1.971,0,0,1,.776.126c.151.063.184.1.046.226q-2.051,1.876-4.091,3.763-2.943,2.71-5.883,5.422c-.109.1-.166.114-.286.007Q10.186,5.024,5.12.512c-.191-.17-.19-.169.033-.3A1.821,1.821,0,0,1,6.1,0q4.646,0,9.291,0" transform="translate(1579.616 655.5)" fill="#fff"/>
      <path id="Path_8190" data-name="Path 8190" d="M28.989,81.422a1.718,1.718,0,0,1-.913.2q-6.506,0-13.012,0H9.494a1.518,1.518,0,0,1-.653-.1c.013-.071.075-.1.118-.139q3.219-2.969,6.438-5.939c.127-.118.194-.135.334-.008.821.746,1.653,1.481,2.483,2.218a.756.756,0,0,0,1.165-.012q1.265-1.16,2.525-2.325c.1-.089.149-.1.256-.006q3.368,3.013,6.743,6.019c.031.028.057.06.087.091" transform="translate(1576.219 588.879)" fill="#fff"/>
      <path id="Path_8191" data-name="Path 8191" d="M0,27.492V15.413c.215.19.429.378.641.567q2.967,2.641,5.936,5.28c.108.1.119.145.007.248q-3.213,2.947-6.419,5.9A.205.205,0,0,1,0,27.492" transform="translate(1584 641.854)" fill="#fff"/>
      <path id="Path_8192" data-name="Path 8192" d="M134.347,13.026q0,5.923,0,11.846c0,.069.039.152-.043.208q-3.262-2.909-6.525-5.818c-.068-.061-.119-.1-.021-.188q3.288-3.018,6.57-6.042s.013,0,.02-.007" transform="translate(1471.61 643.967)" fill="#fff"/>
    </g>
  </g>
</svg>
