<?xml version="1.0" encoding="utf-8"?>
<!-- Generator: Adobe Illustrator 27.3.1, SVG Export Plug-In . SVG Version: 6.00 Build 0)  -->
<svg version="1.1" id="Layer_1" xmlns="http://www.w3.org/2000/svg" xmlns:xlink="http://www.w3.org/1999/xlink" x="0px" y="0px"
	 viewBox="0 0 360 360" style="enable-background:new 0 0 360 360;" xml:space="preserve">
<style type="text/css">
	.st0{fill:#00D900;}
	.st1{fill:#FFFFFF;}
</style>
<circle class="st0" cx="180" cy="180" r="180"/>
<path class="st1" d="M148.8,195.6c1-1.4,1.6-2.5,2.5-3.4c32.6-32.7,65.2-65.3,97.8-97.9c6.2-6.2,9.5-6.2,15.7-0.1
	c8,8,16.1,16,24.1,24.1c5.4,5.5,5.4,8.9,0.1,14.3c-44.5,44.5-89.1,89.1-133.6,133.6c-5.6,5.6-9,5.5-14.6-0.1
	c-23.3-23.4-46.6-46.8-69.9-70.3c-4.9-4.9-4.9-8.9,0.1-13.8c8.4-8.4,16.7-16.8,25.1-25.1c5-5,8.9-5,13.8,0
	c11.8,11.8,23.6,23.6,35.5,35.4C146.1,193.2,147,194,148.8,195.6z"/>
</svg>
